<?xml version="1.0" encoding="UTF-8" standalone="no"?>
<!DOCTYPE svg PUBLIC "-//W3C//DTD SVG 1.1//EN" "http://www.w3.org/Graphics/SVG/1.1/DTD/svg11.dtd">
<svg version="1.1" xmlns="http://www.w3.org/2000/svg" xmlns:xlink="http://www.w3.org/1999/xlink" preserveAspectRatio="xMidYMid meet" viewBox="0 0 640 640" width="640" height="640"><defs><path d="M522.87 100.99C528.39 100.99 532.87 105.47 532.87 110.99C532.87 191.76 532.87 424.08 532.87 504.85C532.87 510.37 528.39 514.85 522.87 514.85C442.1 514.85 209.78 514.85 129.01 514.85C123.49 514.85 119.01 510.37 119.01 504.85C119.01 424.08 119.01 191.76 119.01 110.99C119.01 105.47 123.49 100.99 129.01 100.99C209.78 100.99 442.1 100.99 522.87 100.99Z" id="c3AgDp2sed"></path><path d="M282.94 400.8C282.94 438.88 252.02 469.8 213.94 469.8C175.86 469.8 144.94 438.88 144.94 400.8C144.94 362.72 175.86 331.8 213.94 331.8C252.02 331.8 282.94 362.72 282.94 400.8Z" id="b41GvMhJsR"></path><path d="M506.94 400.8C506.94 438.88 476.02 469.8 437.94 469.8C399.86 469.8 368.94 438.88 368.94 400.8C368.94 362.72 399.86 331.8 437.94 331.8C476.02 331.8 506.94 362.72 506.94 400.8Z" id="b2w6QvJGWv"></path><path d="M265.92 400.8C265.92 429.49 242.63 452.78 213.94 452.78C185.25 452.78 161.96 429.49 161.96 400.8C161.96 372.11 185.25 348.82 213.94 348.82C242.63 348.82 265.92 372.11 265.92 400.8Z" id="cH6LBs8wg"></path><path d="M489.92 400.8C489.92 429.49 466.63 452.78 437.94 452.78C409.25 452.78 385.96 429.49 385.96 400.8C385.96 372.11 409.25 348.82 437.94 348.82C466.63 348.82 489.92 372.11 489.92 400.8Z" id="d2eJKP8zOf"></path><path d="M293.53 239.48L306.87 246.33L225.79 404.33L212.45 397.48L293.53 239.48Z" id="ckeP1RegF"></path><path d="M382.27 308.86L395.53 301.85L444.05 393.8L430.78 400.8L382.27 308.86Z" id="gc6F168Gf"></path><path d="M444.05 385.8L444.05 400.8L340.09 400.8L340.09 385.8L444.05 385.8Z" id="m37rTBITGC"></path><path d="M263.88 312.81L275.2 302.97L351.68 390.96L340.36 400.8L263.88 312.81Z" id="dZbq5FOzb"></path><path d="M396.62 300.42L396.62 315.42L270.88 315.42L270.88 300.42L396.62 300.42Z" id="a4sMp8kSIu"></path><path d="M330.78 239.48L330.78 254.48L293.75 254.48L293.75 239.48L330.78 239.48Z" id="b2KHiALtq"></path><path d="M392.83 280L406.17 286.85L347.1 401.96L333.75 395.12L392.83 280Z" id="b5kbEI9KC"></path><path d="M419.89 275.99L419.89 291L373.36 290.99L373.36 275.99L419.89 275.99Z" id="e3zDPZEUWn"></path><path d="M214.45 133.68L216.41 133.88L218.34 134.17L220.25 134.53L222.13 134.97L223.99 135.48L225.81 136.07L227.6 136.72L229.36 137.45L231.08 138.25L232.77 139.11L234.42 140.03L236.03 141.02L237.6 142.07L239.13 143.18L240.61 144.35L242.05 145.58L243.44 146.86L244.78 148.2L246.07 149.58L247.31 151.02L248.5 152.5L249.63 154.04L250.7 155.61L251.72 157.24L252.68 158.9L253.57 160.61L254.41 162.35L255.18 164.13L255.88 165.95L256.52 167.8L257.08 169.68L257.58 171.6L258 173.54L258.36 175.51L258.63 177.51L258.83 179.53L258.95 181.58L258.99 183.64L258.95 185.71L258.83 187.76L258.63 189.8L258.36 191.82L258 193.83L257.58 195.83L257.08 197.83L256.52 199.83L255.88 201.82L255.18 203.82L254.41 205.82L253.57 207.82L252.68 209.84L251.72 211.86L250.7 213.9L249.63 215.95L248.5 218.03L247.31 220.12L246.07 222.23L244.78 224.37L243.44 226.54L242.05 228.73L240.61 230.96L239.13 233.22L237.6 235.52L236.03 237.86L234.42 240.24L232.77 242.66L231.08 245.13L229.36 247.65L227.6 250.21L225.81 252.84L223.99 255.51L222.13 258.25L220.25 261.04L218.34 263.9L216.41 266.82L214.45 269.81L212.48 272.86L210.48 275.99L208.48 272.86L206.5 269.81L204.54 266.82L202.61 263.9L200.7 261.04L198.82 258.25L196.96 255.51L195.14 252.84L193.35 250.21L191.59 247.65L189.87 245.13L188.18 242.66L186.53 240.24L184.92 237.86L183.35 235.52L181.82 233.22L180.34 230.96L178.9 228.73L177.51 226.54L176.17 224.37L174.88 222.23L173.64 220.12L172.45 218.03L171.32 215.95L170.25 213.9L169.23 211.86L168.27 209.84L167.38 207.82L166.54 205.82L165.77 203.82L165.07 201.82L164.43 199.83L163.87 197.83L163.37 195.83L162.95 193.83L162.6 191.82L162.32 189.8L162.12 187.76L162 185.71L161.96 183.64L162 181.58L162.12 179.53L162.32 177.51L162.6 175.51L162.95 173.54L163.37 171.6L163.87 169.68L164.43 167.8L165.07 165.95L165.77 164.13L166.54 162.35L167.38 160.61L168.27 158.9L169.23 157.24L170.25 155.61L171.32 154.04L172.45 152.5L173.64 151.02L174.88 149.58L176.17 148.2L177.51 146.86L178.9 145.58L180.34 144.35L181.82 143.18L183.35 142.07L184.92 141.02L186.53 140.03L188.18 139.11L189.87 138.25L191.59 137.45L193.35 136.72L195.14 136.07L196.96 135.48L198.82 134.97L200.7 134.53L202.61 134.17L204.54 133.88L206.5 133.68L208.48 133.55L210.48 133.51L212.48 133.55L214.45 133.68ZM208.59 157.34L207.66 157.43L206.75 157.57L205.84 157.74L204.95 157.95L204.08 158.19L203.21 158.47L202.36 158.78L201.53 159.13L200.71 159.5L199.91 159.91L199.13 160.35L198.37 160.82L197.63 161.31L196.9 161.84L196.2 162.39L195.52 162.98L194.86 163.58L194.23 164.21L193.61 164.87L193.03 165.55L192.46 166.26L191.93 166.98L191.42 167.73L190.94 168.5L190.48 169.29L190.06 170.09L189.66 170.92L189.3 171.76L188.97 172.62L188.67 173.5L188.4 174.39L188.16 175.3L187.96 176.22L187.8 177.15L187.66 178.1L187.57 179.06L187.51 180.03L187.49 181.01L187.51 181.98L187.57 182.95L187.66 183.91L187.8 184.86L187.96 185.79L188.16 186.71L188.4 187.62L188.67 188.51L188.97 189.39L189.3 190.25L189.66 191.09L190.06 191.92L190.48 192.73L190.94 193.51L191.42 194.28L191.93 195.03L192.46 195.76L193.03 196.46L193.61 197.14L194.23 197.8L194.86 198.43L195.52 199.04L196.2 199.62L196.9 200.17L197.63 200.7L198.37 201.19L199.13 201.66L199.91 202.1L200.71 202.51L201.53 202.89L202.36 203.23L203.21 203.54L204.08 203.82L204.95 204.06L205.84 204.27L206.75 204.44L207.66 204.58L208.59 204.67L209.53 204.73L210.48 204.75L211.42 204.73L212.36 204.67L213.29 204.58L214.2 204.44L215.11 204.27L216 204.06L216.88 203.82L217.74 203.54L218.59 203.23L219.42 202.89L220.24 202.51L221.04 202.1L221.82 201.66L222.58 201.19L223.32 200.7L224.05 200.17L224.75 199.62L225.43 199.04L226.09 198.43L226.73 197.8L227.34 197.14L227.92 196.46L228.49 195.76L229.02 195.03L229.53 194.28L230.01 193.51L230.47 192.73L230.89 191.92L231.29 191.09L231.65 190.25L231.98 189.39L232.28 188.51L232.55 187.62L232.79 186.71L232.99 185.79L233.16 184.86L233.29 183.91L233.38 182.95L233.44 181.98L233.46 181.01L233.44 180.03L233.38 179.06L233.29 178.1L233.16 177.15L232.99 176.22L232.79 175.3L232.55 174.39L232.28 173.5L231.98 172.62L231.65 171.76L231.29 170.92L230.89 170.09L230.47 169.29L230.01 168.5L229.53 167.73L229.02 166.98L228.49 166.26L227.92 165.55L227.34 164.87L226.73 164.21L226.09 163.58L225.43 162.98L224.75 162.39L224.05 161.84L223.32 161.31L222.58 160.82L221.82 160.35L221.04 159.91L220.24 159.5L219.42 159.13L218.59 158.78L217.74 158.47L216.88 158.19L216 157.95L215.11 157.74L214.2 157.57L213.29 157.43L212.36 157.34L211.42 157.28L210.48 157.26L209.53 157.28L208.59 157.34Z" id="bQ5n85ctN"></path><path d="M384.16 135.41L420.37 135.41L420.37 171.62L384.16 171.62L384.16 135.41Z" id="a1kJ9uRzXK"></path><path d="M382.27 133.51L422.27 133.51L422.27 173.51L382.27 173.51L382.27 133.51Z" id="d4g1P6AXG2"></path><path d="M391.97 143.89L411.22 143.89L411.22 163.13L391.97 163.13L391.97 143.89Z" id="f4PhMHalvN"></path><path d="M382.27 193.92L422.27 193.92L422.27 233.92L382.27 233.92L382.27 193.92Z" id="anYxZWce6"></path><path d="M391.97 204.3L411.22 204.3L411.22 223.54L391.97 223.54L391.97 204.3Z" id="a1bEe02itU"></path><path d="M444.39 133.51L484.39 133.51L484.39 173.51L444.39 173.51L444.39 133.51Z" id="a1ozxbSA2O"></path><path d="M454.1 143.89L473.34 143.89L473.34 163.13L454.1 163.13L454.1 143.89Z" id="c3SgCMb0rN"></path><path d="M469.39 218.92L484.39 218.92L484.39 233.92L469.39 233.92L469.39 218.92Z" id="c1ZAVpEbIF"></path><path d="M454.1 218.92L469.1 218.92L469.1 233.92L454.1 233.92L454.1 218.92Z" id="aw4QkZV0w"></path><path d="M454.1 203.1L469.1 203.1L469.1 218.1L454.1 218.1L454.1 203.1Z" id="k3flbf8hF"></path><path d="M469.39 188.1L484.39 188.1L484.39 203.1L469.39 203.1L469.39 188.1Z" id="a4gjE7oZm"></path></defs><g><g><g><use xlink:href="#c3AgDp2sed" opacity="1" fill="#000000" fill-opacity="1"></use></g><g><use xlink:href="#b41GvMhJsR" opacity="1" fill="#ffffff" fill-opacity="1"></use></g><g><use xlink:href="#b2w6QvJGWv" opacity="1" fill="#ffffff" fill-opacity="1"></use></g><g><use xlink:href="#cH6LBs8wg" opacity="1" fill="#000000" fill-opacity="1"></use></g><g><use xlink:href="#d2eJKP8zOf" opacity="1" fill="#000000" fill-opacity="1"></use></g><g><use xlink:href="#ckeP1RegF" opacity="1" fill="#ffffff" fill-opacity="1"></use></g><g><use xlink:href="#gc6F168Gf" opacity="1" fill="#ffffff" fill-opacity="1"></use></g><g><use xlink:href="#m37rTBITGC" opacity="1" fill="#ffffff" fill-opacity="1"></use></g><g><use xlink:href="#dZbq5FOzb" opacity="1" fill="#ffffff" fill-opacity="1"></use></g><g><use xlink:href="#a4sMp8kSIu" opacity="1" fill="#ffffff" fill-opacity="1"></use></g><g><use xlink:href="#b2KHiALtq" opacity="1" fill="#ffffff" fill-opacity="1"></use></g><g><use xlink:href="#b5kbEI9KC" opacity="1" fill="#ffffff" fill-opacity="1"></use></g><g><use xlink:href="#e3zDPZEUWn" opacity="1" fill="#ffffff" fill-opacity="1"></use></g><g><use xlink:href="#bQ5n85ctN" opacity="1" fill="#ffffff" fill-opacity="1"></use></g><g><use xlink:href="#a1kJ9uRzXK" opacity="1" fill="#ffffff" fill-opacity="1"></use></g><g><use xlink:href="#d4g1P6AXG2" opacity="1" fill="#ffffff" fill-opacity="1"></use></g><g><use xlink:href="#f4PhMHalvN" opacity="1" fill="#000000" fill-opacity="1"></use></g><g><use xlink:href="#anYxZWce6" opacity="1" fill="#ffffff" fill-opacity="1"></use></g><g><use xlink:href="#a1bEe02itU" opacity="1" fill="#000000" fill-opacity="1"></use></g><g><use xlink:href="#a1ozxbSA2O" opacity="1" fill="#ffffff" fill-opacity="1"></use></g><g><use xlink:href="#c3SgCMb0rN" opacity="1" fill="#000000" fill-opacity="1"></use></g><g><use xlink:href="#c1ZAVpEbIF" opacity="1" fill="#ffffff" fill-opacity="1"></use></g><g><use xlink:href="#aw4QkZV0w" opacity="1" fill="#ffffff" fill-opacity="1"></use></g><g><use xlink:href="#k3flbf8hF" opacity="1" fill="#ffffff" fill-opacity="1"></use></g><g><use xlink:href="#a4gjE7oZm" opacity="1" fill="#ffffff" fill-opacity="1"></use></g></g></g></svg>