<?xml version="1.0" encoding="UTF-8" standalone="no"?>
<!DOCTYPE svg PUBLIC "-//W3C//DTD SVG 1.1//EN" "http://www.w3.org/Graphics/SVG/1.1/DTD/svg11.dtd">
<svg version="1.1" xmlns="http://www.w3.org/2000/svg" xmlns:xlink="http://www.w3.org/1999/xlink" preserveAspectRatio="xMidYMid meet" viewBox="0 0 640 640" width="640" height="640"><defs><path d="M528.42 307.43C528.42 422.45 435.03 515.84 320 515.84C204.97 515.84 111.58 422.45 111.58 307.43C111.58 192.4 204.97 99.01 320 99.01C435.03 99.01 528.42 192.4 528.42 307.43Z" id="a13f9STxbM"></path><path d="M480 307.43C480 395.73 408.31 467.43 320 467.43C231.69 467.43 160 395.73 160 307.43C160 219.12 231.69 147.43 320 147.43C408.31 147.43 480 219.12 480 307.43Z" id="m4vgyvrd8E"></path><path d="M290.3 264.36L350.3 264.36L350.3 447.52L290.3 447.52L290.3 264.36Z" id="a1IbkHjyVu"></path><path d="M290.3 175.35L350.3 175.35L350.3 235.35L290.3 235.35L290.3 175.35Z" id="b1xb0vi1Q"></path></defs><g><g><g><use xlink:href="#a13f9STxbM" opacity="1" fill="#000000" fill-opacity="1"></use></g><g><use xlink:href="#m4vgyvrd8E" opacity="1" fill="#ffffff" fill-opacity="1"></use></g><g><use xlink:href="#a1IbkHjyVu" opacity="1" fill="#000000" fill-opacity="1"></use></g><g><use xlink:href="#b1xb0vi1Q" opacity="1" fill="#000000" fill-opacity="1"></use></g></g></g></svg>